#N canvas 448 217 718 772 10;
#X obj 44 660 dac~, f 59;
#X obj 43 506 *~;
#X obj 394 519 *~;
#X obj 43 456 osc~ 444;
#X obj 393 456 osc~ 222;
#X obj 43 382 mtof;
#X floatatom 42 363 5 0 0 0 - - -;
#X obj 393 381 mtof;
#X floatatom 393 361 5 0 0 0 - - -;
#X obj 524 402 r amp;
#X obj 395 619 *~;
#X obj 44 630 *~;
#X obj 395 588 *~ 0.5;
#X obj 44 595 *~ 0.5;
#X obj 392 274 metro 500;
#X obj 503 404 bng 15 250 50 0 empty empty empty 17 7 0 10 -262144
-1 -1;
#X floatatom 442 255 5 0 0 0 - - -;
#X obj 41 268 metro 500;
#X obj 42 292 bng 15 250 50 0 empty empty empty 17 7 0 10 -262144 -1
-1;
#X obj 40 116 tgl 15 0 empty empty empty 17 7 0 10 -262144 -1 -1 0
1;
#X floatatom 92 249 5 0 0 0 - - -;
#X obj 32 59 r activarMetro;
#X obj 504 576 line~;
#X msg 504 537 0 \, \$1 10, f 5;
#X obj 504 459 t f b, f 9;
#X obj 503 436 f, f 4;
#X msg 555 549 0 \$1;
#X obj 176 412 r amp;
#X obj 155 414 bng 15 250 50 0 empty empty empty 17 7 0 10 -262144
-1 -1;
#X obj 156 586 line~;
#X msg 156 547 0 \, \$1 10, f 5;
#X obj 156 469 t f b, f 9;
#X obj 155 446 f, f 4;
#X msg 208 556 0 \$1;
#X obj 253 516 expr $f2*.85;
#X obj 605 509 expr $f2*.85;
#X obj 504 603 *~;
#X obj 158 614 *~;
#X obj 273 426 loadbang 1;
#X msg 273 447 1;
#X obj 614 383 loadbang 1;
#X msg 614 404 1;
#X obj 92 197 expr random(50 \, 800), f 6;
#X obj 442 203 expr random(50 \, 800), f 6;
#X obj 44 556 *~;
#X obj 395 563 *~;
#X obj 58 487 osc~ 333;
#X obj 410 543 osc~ 444;
#X obj 59 537 osc~ 123;
#X obj 409 500 osc~ 156;
#X obj 393 423 line~;
#X obj 42 428 line~;
#X obj 42 321 random 36;
#X obj 393 319 random 36;
#X obj 42 342 + 48;
#X obj 393 340 + 48;
#X msg 42 407 \$1 10;
#X msg 393 402 \$1 10;
#X obj 555 510 del 10;
#X obj 555 530 f, f 9;
#X obj 555 492 bng 15 250 50 0 empty empty empty 17 7 0 10 -262144
-1 -1;
#X obj 185 74 loadbang;
#X obj 208 517 del 10;
#X obj 208 499 bng 15 250 50 0 empty empty empty 17 7 0 10 -262144
-1 -1;
#X obj 208 537 f, f 8;
#X connect 1 0 44 0;
#X connect 2 0 45 0;
#X connect 3 0 1 0;
#X connect 4 0 2 0;
#X connect 4 0 0 1;
#X connect 5 0 56 0;
#X connect 6 0 5 0;
#X connect 7 0 57 0;
#X connect 8 0 7 0;
#X connect 9 0 25 1;
#X connect 10 0 0 1;
#X connect 11 0 0 0;
#X connect 12 0 10 0;
#X connect 13 0 11 0;
#X connect 14 0 15 0;
#X connect 14 0 43 0;
#X connect 14 0 53 0;
#X connect 15 0 25 0;
#X connect 16 0 14 1;
#X connect 16 0 35 1;
#X connect 17 0 18 0;
#X connect 17 0 42 0;
#X connect 18 0 28 0;
#X connect 18 0 52 0;
#X connect 19 0 17 0;
#X connect 19 0 14 0;
#X connect 20 0 17 1;
#X connect 20 0 34 1;
#X connect 21 0 19 0;
#X connect 22 0 36 0;
#X connect 22 0 36 1;
#X connect 23 0 22 0;
#X connect 24 0 23 0;
#X connect 24 1 35 0;
#X connect 24 1 60 0;
#X connect 25 0 24 0;
#X connect 26 0 22 0;
#X connect 27 0 32 1;
#X connect 28 0 32 0;
#X connect 29 0 37 0;
#X connect 29 0 37 1;
#X connect 30 0 29 0;
#X connect 31 0 30 0;
#X connect 31 1 34 0;
#X connect 31 1 63 0;
#X connect 32 0 31 0;
#X connect 33 0 29 0;
#X connect 34 0 64 1;
#X connect 35 0 59 1;
#X connect 36 0 10 1;
#X connect 37 0 11 1;
#X connect 38 0 39 0;
#X connect 39 0 32 1;
#X connect 40 0 41 0;
#X connect 41 0 25 1;
#X connect 42 0 20 0;
#X connect 43 0 16 0;
#X connect 44 0 13 0;
#X connect 45 0 12 0;
#X connect 46 0 1 1;
#X connect 47 0 45 1;
#X connect 48 0 44 1;
#X connect 49 0 2 1;
#X connect 50 0 4 0;
#X connect 51 0 3 0;
#X connect 52 0 54 0;
#X connect 53 0 55 0;
#X connect 54 0 6 0;
#X connect 55 0 8 0;
#X connect 56 0 51 0;
#X connect 57 0 50 0;
#X connect 58 0 59 0;
#X connect 59 0 26 0;
#X connect 60 0 58 0;
#X connect 61 0 19 0;
#X connect 62 0 64 0;
#X connect 63 0 62 0;
#X connect 64 0 33 0;
