#N canvas 710 218 762 387 10;
#X obj 59 348 dac~;
#X obj 63 286 *~;
#X obj 88 185 r amp;
#X msg 88 206 \$1 100;
#X obj 88 227 line~;
#X obj 68 59 adc~;
#X obj 67 91 lop~;
#X obj 67 112 lop~;
#X obj 67 133 lop~;
#X obj 124 64 r lowPass;
#X obj 197 161 rev3~ 95 95 3000 70;
#X connect 1 0 0 0;
#X connect 1 0 0 1;
#X connect 2 0 3 0;
#X connect 3 0 4 0;
#X connect 4 0 1 1;
#X connect 5 0 6 0;
#X connect 5 0 10 0;
#X connect 5 1 6 0;
#X connect 6 0 7 0;
#X connect 7 0 8 0;
#X connect 8 0 1 0;
#X connect 9 0 6 1;
#X connect 9 0 7 1;
#X connect 9 0 8 1;
#X connect 10 0 1 0;
