#N canvas 710 218 762 387 10;
#X obj 59 348 dac~;
#X obj 35 95 *~;
#X msg 86 38 \$1 100;
#X obj 29 35 adc~;
#X obj 33 168 lop~;
#X obj 33 189 lop~;
#X obj 33 210 lop~;
#X obj 102 111 r LPfreq;
#X msg 198 6 0.1;
#X msg 190 53 10000;
#X obj 243 32 loadbang;
#X obj 86 59 line~ 1;
#X obj 96 151 line 1;
#X msg 98 131 \$1 100;
#X obj 86 17 r ampIn;
#X connect 1 0 4 0;
#X connect 2 0 11 0;
#X connect 3 0 1 0;
#X connect 3 1 1 0;
#X connect 4 0 5 0;
#X connect 5 0 6 0;
#X connect 6 0 0 0;
#X connect 6 0 0 1;
#X connect 7 0 13 0;
#X connect 8 0 2 0;
#X connect 9 0 13 0;
#X connect 10 0 8 0;
#X connect 10 0 9 0;
#X connect 11 0 1 1;
#X connect 12 0 4 1;
#X connect 12 0 5 1;
#X connect 12 0 6 1;
#X connect 13 0 12 0;
#X connect 14 0 2 0;
