#N canvas 180 116 286 590 10;
#X obj 51 528 dac~, f 21;
#X obj 65 290 osc~ 200;
#X obj 50 311 *~;
#X obj 174 309 *~;
#X obj 50 222 osc~ 444;
#X obj 174 224 osc~ 222;
#X obj 50 165 mtof;
#X obj 49 104 random 24;
#X obj 49 125 + 60;
#X floatatom 49 146 5 0 0 0 - - -;
#X obj 49 52 bng 15 250 50 0 empty empty empty 17 7 0 10 -262144 -1
-1;
#X obj 49 17 r activarNotas;
#X obj 174 166 mtof;
#X obj 174 104 random 24;
#X obj 174 125 + 60;
#X floatatom 174 146 5 0 0 0 - - -;
#X obj 188 287 osc~ 207;
#X obj 107 372 r amp;
#X obj 174 458 *~;
#X msg 107 393 \$1 500;
#X obj 107 414 line~;
#X obj 50 458 *~;
#X obj 95 328 nbx 5 14 -1e+37 1e+37 0 0 empty empty empty 0 -8 0 10
-262144 -1 -1 0 256;
#X connect 1 0 2 1;
#X connect 2 0 21 0;
#X connect 3 0 18 0;
#X connect 4 0 2 0;
#X connect 5 0 3 0;
#X connect 6 0 4 0;
#X connect 7 0 8 0;
#X connect 8 0 9 0;
#X connect 9 0 6 0;
#X connect 10 0 7 0;
#X connect 10 0 13 0;
#X connect 11 0 10 0;
#X connect 12 0 5 0;
#X connect 13 0 14 0;
#X connect 14 0 15 0;
#X connect 15 0 12 0;
#X connect 16 0 3 1;
#X connect 17 0 19 0;
#X connect 18 0 0 1;
#X connect 19 0 20 0;
#X connect 20 0 18 1;
#X connect 20 0 21 1;
#X connect 21 0 0 0;
#X connect 22 0 19 0;
