#N canvas 180 116 854 623 10;
#X obj 310 428 dac~;
#X obj 258 305 osc~ 200;
#X obj 236 329 *~;
#X obj 355 337 *~;
#X obj 259 225 osc~ 444;
#X obj 379 228 osc~ 222;
#X obj 254 78 bng 15 250 50 0 empty empty empty 17 7 0 10 -262144 -1
-1;
#X obj 257 128 mtof;
#X obj 326 99 random 24;
#X obj 326 120 + 60;
#X floatatom 326 141 5 0 0 0 - - -;
#X obj 316 50 bng 15 250 50 0 empty empty empty 17 7 0 10 -262144 -1
-1;
#X obj 284 24 r activarNotas;
#X obj 400 151 mtof;
#X obj 469 122 random 24;
#X obj 469 143 + 60;
#X floatatom 469 164 5 0 0 0 - - -;
#X obj 375 314 osc~ 207;
#X obj 515 282 r amp;
#X msg 528 389 \$1 100;
#X obj 371 372 *~;
#X obj 527 411 line~ 0.5;
#X obj 248 375 *~;
#X obj 558 284 fromsymbol;
#X connect 1 0 2 1;
#X connect 2 0 22 0;
#X connect 3 0 20 0;
#X connect 4 0 2 0;
#X connect 5 0 3 0;
#X connect 7 0 4 0;
#X connect 8 0 9 0;
#X connect 9 0 10 0;
#X connect 10 0 7 0;
#X connect 11 0 8 0;
#X connect 11 0 14 0;
#X connect 12 0 11 0;
#X connect 13 0 5 0;
#X connect 14 0 15 0;
#X connect 15 0 16 0;
#X connect 16 0 13 0;
#X connect 17 0 3 1;
#X connect 18 0 23 0;
#X connect 18 0 19 0;
#X connect 19 0 21 0;
#X connect 20 0 0 1;
#X connect 21 0 20 1;
#X connect 21 0 22 1;
#X connect 22 0 0 0;
#X connect 23 0 19 0;
