#N canvas 710 218 762 387 10;
#X obj 191 309 dac~;
#X obj 208 96 *~;
#X msg 259 39 \$1 100;
#X obj 202 36 adc~;
#X obj 206 169 lop~;
#X obj 206 190 lop~;
#X obj 206 211 lop~;
#X obj 275 112 r LPfreq;
#X msg 371 7 0.1;
#X obj 416 33 loadbang;
#X msg 271 132 \$1 100;
#X obj 259 18 r ampIn;
#X msg 363 54 1000S;
#X obj 269 152 line~;
#X obj 67 237 *~;
#X obj 259 60 line~ 0.1;
#X obj 66 157 phasor~ 444;
#X connect 1 0 4 0;
#X connect 2 0 15 0;
#X connect 3 0 1 0;
#X connect 3 1 1 0;
#X connect 4 0 5 0;
#X connect 5 0 6 0;
#X connect 6 0 0 1;
#X connect 7 0 10 0;
#X connect 8 0 2 0;
#X connect 9 0 8 0;
#X connect 9 0 12 0;
#X connect 10 0 13 0;
#X connect 11 0 2 0;
#X connect 12 0 10 0;
#X connect 13 0 16 0;
#X connect 14 0 0 0;
#X connect 14 0 4 0;
#X connect 15 0 1 1;
#X connect 15 0 14 1;
#X connect 16 0 14 0;
