#N canvas 798 123 762 387 10;
#X obj 150 281 dac~;
#X obj 128 101 line~;
#X obj 128 40 loadbang;
#X msg 128 71 220;
#X msg 199 70 \$1 1000;
#X obj 199 40 r freq;
#X obj 128 130 phasor~;
#X obj 143 230 *~;
#X obj 244 187 r amp;
#X msg 244 208 \$1 100;
#X obj 244 229 line~;
#X obj 309 113 adc~;
#X obj 308 145 delay~ 44100 44100;
#X connect 1 0 6 0;
#X connect 2 0 3 0;
#X connect 3 0 1 0;
#X connect 4 0 1 0;
#X connect 5 0 4 0;
#X connect 6 0 7 0;
#X connect 7 0 0 0;
#X connect 7 0 0 1;
#X connect 8 0 9 0;
#X connect 9 0 10 0;
#X connect 10 0 7 1;
#X connect 11 0 12 0;
#X connect 12 0 7 0;
